PathFileType	4	(X/Y/Z)	KinectSkeleton.trc																																																	
DataRate	CameraRate	NumFrames	NumMarkers	Units	OrigDataRate	OrigDataStartFrame	OrigNumFrames																																													
60	60	15	17	mm	60	434	300																																													
Frame#	Time	Neck			ShoulderMid			R.Shoulder			L.Shoulder			R.Elbow			L.Elbow			R.Wrist			L.Wrist			HipCenter			R.Hip			L.Hip			R.Knee			L.Knee			R.Ankle			L.Ankle			R.Foot			L.Foot		
		X1	Y1	Z1	X2	Y2	Z2	X3	Y3	Z3	X4	Y4	Z4	X5	Y5	Z5	X6	Y6	Z6	X7	Y7	Z7	X8	Y8	Z8	X9	Y9	Z9	X10	Y10	Z10	X11	Y11	Z11	X12	Y12	Z12	X13	Y13	Z13	X14	Y14	Z14	X15	Y15	Z15	X16	Y16	Z16	X17	Y17	Z17
																																																				
434	28.286	-1711.448	1481.253	462.334	-1711.448	1481.253	462.334	-1708.848	1431.149	633.833	-1718.746	1406.128	288.709	-1823.346	1367.305	891.505	-1821.063	1301.517	45.617	-1755.309	1163.586	781.844	-1712.141	1157.28	200.675	-1738.937	931.698	506.525	-1745.558	938.525	590.41	-1731.593	924.127	413.5	-1774.448	531.577	636.816	-1762.161	514.294	405.773	-1836.93	141.103	671.556	-1816.739	125.346	398.141	-1693.834	54.518	729.401	-1640.706	48.252	389.912
435	28.349	-1713.05	1481.488	460.636	-1713.05	1481.488	460.636	-1709.402	1431.431	632.259	-1717.16	1405.636	287.175	-1824.721	1367.686	889.69	-1821.448	1299.825	45.341	-1751.139	1164.111	783.223	-1710.937	1157.686	201.323	-1738.509	931.751	506.111	-1745.428	938.716	589.987	-1730.836	924.027	413.095	-1771.495	531.552	637.295	-1762.865	514.163	406.081	-1836.601	141.284	670.927	-1819.686	125.394	399.541	-1694.429	53.827	729.893	-1644.15	47.967	384.9
436	28.408	-1712.038	1483.543	456.129	-1712.038	1483.543	456.129	-1706.806	1433.566	628.46	-1716.747	1406.33	282.71	-1824.876	1369.185	885.479	-1823.656	1298.079	42.084	-1749.664	1162.819	783.967	-1711.522	1158.095	199.958	-1739.039	932.563	505.846	-1745.444	940.08	589.975	-1731.937	924.228	412.55	-1775.404	531.899	637.116	-1763.399	513.048	406.376	-1838.58	140.266	672.83	-1819.253	122.912	400.696	-1695.06	51.839	728.628	-1641.029	50.112	387.103
437	28.47	-1713.348	1484.459	454.582	-1713.348	1484.459	454.582	-1708.831	1435.359	627.343	-1719.676	1408.562	280.505	-1827.197	1375.09	885.773	-1821.85	1296.923	38.804	-1752.941	1168.079	783.896	-1712.718	1157.983	200.274	-1741.705	932.931	506.273	-1746.998	940.975	590.575	-1735.835	924.01	412.786	-1773.404	531.695	636.375	-1764.564	511.938	406.227	-1828.623	138.188	672.186	-1814.713	120.357	400.53	-1682.378	54.159	728.653	-1635.73	48.441	387.583
438	28.532	-1710.571	1482.043	450.778	-1710.571	1482.043	450.778	-1704.982	1434.575	623.677	-1711.696	1400.777	279.196	-1825.943	1378.81	881.058	-1823.099	1297.272	38.837	-1752.594	1170.474	782.801	-1717.81	1156.685	200.504	-1739.254	932.394	508.043	-1744.619	940.834	592.077	-1733.303	923.035	414.853	-1773.799	532.802	637.58	-1762.271	512.095	406.635	-1836.025	141.274	671.931	-1814.849	121.895	399.913	-1692.039	54.158	728.057	-1637.356	47.628	387.293
439	28.593	-1705.987	1478.677	448.038	-1705.987	1478.677	448.038	-1707.009	1435.234	621.771	-1708.151	1396.726	277.48	-1825.558	1381.057	880.155	-1812.648	1289.518	36.115	-1751.9	1173.5	781.313	-1710.893	1147.751	198.52	-1741.835	930.749	508.88	-1747.723	939.197	592.759	-1735.307	921.379	415.862	-1771.263	531.393	638.383	-1766.2	511.171	407.039	-1836.534	140.742	670.542	-1818.19	121.462	399.473	-1697.2	50.055	731.742	-1640.892	47.523	386.324
440	28.653	-1703.388	1476.177	438.127	-1703.388	1476.177	438.127	-1701.795	1440.492	613.134	-1708.619	1393.541	268.765	-1824.743	1403.581	872.547	-1804.412	1263.863	34.886	-1753.963	1189.509	786.21	-1710.55	1135.83	212.762	-1745.047	931.16	518.985	-1750.592	943.067	602.478	-1738.897	917.955	426.395	-1769.116	534.685	645.669	-1767.134	507.615	413.231	-1840.044	144.783	675.524	-1816.803	117.617	402.808	-1697.667	53.146	727.709	-1638.007	48.256	385.322
441	28.728	-1698.531	1468.928	429.016	-1698.531	1468.928	429.016	-1699.112	1443.69	604.545	-1705.518	1382.187	263.305	-1823.599	1411.782	862.392	-1799.186	1238.407	38.581	-1753.562	1195.253	785.174	-1711.973	1119.748	224.678	-1745.472	929.369	522.55	-1750.431	942.17	605.552	-1739.973	915.174	430.505	-1774.05	535.787	647.023	-1768.057	506.855	413.975	-1835.874	146.246	677.418	-1816.21	118.596	400.465	-1695.394	53.17	729.421	-1638.157	48.889	387.025
442	28.797	-1696.362	1467.88	416.962	-1696.362	1467.88	416.962	-1694.811	1442.71	593.473	-1705.164	1366.576	258.137	-1823.359	1435.131	851.067	-1797.593	1214.929	38.261	-1757.305	1216.072	777.867	-1712.152	1109.258	232.704	-1745.89	932.329	529.059	-1750.134	947.661	611.638	-1741.184	915.327	437.483	-1770.177	541.026	650.906	-1767.925	507.162	418.971	-1838.177	152.488	678.854	-1816.316	119.092	405.248	-1698.871	55.481	726.413	-1640.103	47.338	382.575
443	28.855	-1695.839	1461.462	405.654	-1695.839	1461.462	405.654	-1695.183	1446.716	583.017	-1703.801	1350.628	252.934	-1819.071	1440.044	842.851	-1793.58	1184.43	42.758	-1757.63	1220.175	768.222	-1703.381	1089.064	240.3	-1746.246	930.638	536.762	-1750.465	948.215	618.877	-1741.569	911.146	445.699	-1772.889	541.296	652.761	-1767.638	503.185	423.735	-1837.363	152.056	678.156	-1815.005	115.15	407.678	-1696.859	57.244	726.489	-1637.176	47.057	386.693
444	28.915	-1695.383	1456.361	393.663	-1695.383	1456.361	393.663	-1695.073	1447.919	571.959	-1701.24	1340.581	244.52	-1819.955	1455.411	831.981	-1792.136	1162.324	44.114	-1757.771	1230.076	774.602	-1708.643	1079.981	250.861	-1745.153	929.67	544.574	-1749.486	949.966	626.24	-1740.349	907.163	454.009	-1767.9	541.844	658.674	-1769.322	498.732	428.293	-1841.34	153.088	680.053	-1816.477	110	408.42	-1701.655	55.282	726.124	-1636.068	47.975	386.883
445	28.993	-1693.118	1438.502	381.575	-1693.118	1438.502	381.575	-1692.417	1475.075	549.445	-1699.904	1330.487	233.306	-1815.381	1469.67	808.226	-1788.316	1141.197	45.027	-1755.369	1240.332	777.553	-1706.47	1065.324	253.025	-1743.458	923.15	550.706	-1747.918	943.541	631.741	-1738.513	900.538	460.841	-1769.058	538.112	660.437	-1769.926	495.582	428.837	-1842.172	151.939	679.081	-1820.989	110.854	397.336	-1704.2	54.725	726.875	-1639.131	54.455	387.44
446	29.054	-1691.277	1425.812	367.913	-1691.277	1425.812	367.913	-1692.067	1467.793	534.83	-1699.529	1310.715	226.38	-1814.727	1484.052	792	-1785.502	1112.669	47.953	-1758.291	1253.638	772.111	-1704.534	1056.088	261.274	-1741.456	921.542	559.993	-1745.884	944.956	639.851	-1736.544	895.578	471.433	-1772.736	541.291	664.808	-1767.916	492.62	435.601	-1841.925	155.967	682	-1819.413	109.96	399.599	-1705.826	55.408	725.414	-1638.117	54.867	387.329
447	29.118	-1691.013	1412.658	361.323	-1691.013	1412.658	361.323	-1693.613	1462.887	525.611	-1696.43	1292.57	224.473	-1819.334	1486.79	780.455	-1785.425	1087.286	56.338	-1757.339	1257.476	767.92	-1692.952	1027.899	263.947	-1740.641	916.032	569.73	-1746.406	941.606	648.77	-1734.248	887.672	482.077	-1768.913	537.866	671.743	-1767.691	485.488	443.036	-1842.852	153.617	686.25	-1820.16	103.596	403.613	-1703.391	57.784	729.146	-1638.137	52.391	387.963
448	29.179	-1693.039	1406.876	351.016	-1693.039	1406.876	351.016	-1693.464	1457.35	516.104	-1696.056	1278.299	221.282	-1818.103	1489.657	769.886	-1781.13	1069.97	55.854	-1759.404	1259.684	765.862	-1699.981	1013.92	268.51	-1738.825	916.662	570.96	-1743.64	943.427	649.485	-1733.484	886.981	483.879	-1769.16	540.655	671.41	-1767.487	485.669	445.133	-1840.794	156.84	686.908	-1821.398	104.825	405.449	-1702.392	58.929	726.964	-1639.392	54.454	391.81
